<svg width="150" height="106" viewBox="0 0 150 106" fill="none" xmlns="http://www.w3.org/2000/svg">
<rect width="150" height="106" rx="30" fill="#A5A6F6" fill-opacity="0.25"/>
<path fill-rule="evenodd" clip-rule="evenodd" d="M105.43 48.9512C105.932 47.0991 106.202 45.1428 106.202 43.12C106.202 31.4558 97.2472 22 86.2013 22C79.1929 22 73.0265 25.8064 69.4549 31.5683C66.7305 29.3261 63.3042 27.9904 59.5825 27.9904C50.7056 27.9904 43.5094 35.5894 43.5094 44.9632C43.5094 45.3334 43.5206 45.7008 43.5427 46.0651C36.3641 47.7641 31 54.5341 31 62.6272C31 71.9754 38.1569 79.5585 47.0003 79.5999V79.6H47.0269L47.0731 79.6L47.1193 79.6H103.976L104.02 79.6C112.053 79.6 118.566 72.7231 118.566 64.24C118.566 56.2591 112.802 49.6999 105.43 48.9512Z" fill="#788BF1" fill-opacity="0.9"/>
</svg>
