<svg width="675" height="530" viewBox="0 0 675 530" fill="none" xmlns="http://www.w3.org/2000/svg">
<path d="M0 150C0 67.1573 67.1573 0 150 0H525C607.843 0 675 67.1573 675 150V380C675 462.843 607.843 530 525 530H150C67.1573 530 0 462.843 0 380V150Z" fill="#A5A6F6" fill-opacity="0.25"/>
<path d="M258.494 212.184L288.928 223.189V236.157L247.584 218.644V209.456L258.494 212.184ZM288.928 203.188L258.446 214.385L247.584 216.969V207.781L288.928 190.268V203.188ZM354.484 173.328L328.932 248.981H318.691L344.244 173.328H354.484ZM416.5 214.098L385.827 203.14V190.268L427.506 207.781V217.017L416.5 214.098ZM385.827 223.285L416.548 212.088L427.506 209.456V218.644L385.827 236.157V223.285Z" fill="black" fill-opacity="0.9"/>
<path fill-rule="evenodd" clip-rule="evenodd" d="M170 76C153.431 76 140 89.4315 140 106V342C140 358.569 153.431 372 170 372H507C523.569 372 537 358.569 537 342V106C537 89.4315 523.569 76 507 76H170ZM188 93C171.431 93 158 106.432 158 123V287C158 303.569 171.431 317 188 317H488C504.569 317 518 303.569 518 287V123C518 106.431 504.569 93 488 93H188Z" fill="#5D5FEF" fill-opacity="0.9"/>
<circle cx="338.5" cy="344.5" r="17.5" fill="#A5A6F6" fill-opacity="0.9"/>
<path fill-rule="evenodd" clip-rule="evenodd" d="M360.737 372L319.744 372C306.991 406.278 289.236 430.839 269 440.02V453H410V439.318C390.379 429.632 373.178 405.439 360.737 372Z" fill="#5D5FEF" fill-opacity="0.9"/>
</svg>
